<?xml version="1.0" encoding="UTF-8"?>
<svg width="113" height="46" viewBox="0 0 113 46" fill="none" xmlns="http://www.w3.org/2000/svg">
    <path d="M3.66381 15.9356C3.66381 15.9356 6.68671 16.2515 8.60336 15.9356C10.52 15.6197 16.1774 12.5958 16.1774 12.5958L33.6305 8.30178L50.4249 4.96199L60.6334 3.05353C60.6334 3.05353 63.5971 -1.71762 64.9143 0.667964C66.2316 3.05354 69.1953 5.91621 69.1953 5.91621H72.159L77.7572 10.2102L90.9293 21.661L94.881 27.3863L97.1861 30.7261L102.784 35.0201L105.748 36.4515C105.748 36.4515 113.267 42.1768 112.993 44.5624C112.718 46.948 105.039 46.1815 100.479 43.6082C99.1394 42.8521 97.1861 41.2226 97.1861 41.2226C97.1861 41.2226 96.591 43.0349 95.8689 43.6082C94.9666 44.3245 93.2344 43.6082 93.2344 43.6082C93.2344 43.6082 88.3344 45.6787 87.6363 42.654C87.3916 41.5937 87.6363 39.7913 87.6363 39.7913L88.6242 35.0201V32.1575H87.6363L82.6967 33.5888H79.4037L73.1469 30.7261H70.1832C70.1832 30.7261 64.9143 34.543 63.9264 35.0201C62.9385 35.4972 53.3887 35.0201 53.3887 35.0201L49.7663 36.4515C49.7663 36.4515 50.4249 42.1769 49.7663 42.654C49.1077 43.1311 43.5096 38.3599 43.5096 38.3599H23.0927C23.0927 38.3599 8.60336 41.2226 4.98102 38.3599C1.35868 35.4973 0.700072 30.7261 0.700072 30.7261C0.700072 30.7261 -0.87509 23.3797 0.700072 19.7525C1.52474 17.8535 3.66381 15.9356 3.66381 15.9356Z"
          fill="#222222"/>
</svg>