<?xml version="1.0" encoding="UTF-8"?>
<svg width="14" height="14" viewBox="0 0 14 14" fill="none" xmlns="http://www.w3.org/2000/svg">
    <path d="M6.98 1.396C3.90054 1.396 1.396 3.90054 1.396 6.98C1.396 10.0595 3.90054 12.564 6.98 12.564C10.0595 12.564 12.564 10.0595 12.564 6.98C12.564 3.90054 10.0595 1.396 6.98 1.396ZM6.98 11.8911C4.27199 11.8911 2.06887 9.68812 2.06887 6.98C2.06887 4.27187 4.27187 2.06887 6.98 2.06887C9.68812 2.06887 11.8911 4.27187 11.8911 6.98C11.8911 9.68812 9.68812 11.8911 6.98 11.8911Z" fill="black"/>
    <path d="M9.67554 6.6436H7.31653V3.58927C7.31653 3.40385 7.16602 3.25281 6.98007 3.25281C6.79466 3.25281 6.64362 3.40332 6.64362 3.58927V6.98003C6.64362 7.16545 6.79413 7.31649 6.98007 7.31649H9.67563C9.86105 7.31649 10.0121 7.16598 10.0121 6.98003C10.0121 6.79462 9.86158 6.64358 9.67563 6.64358L9.67554 6.6436Z" fill="black"/>
</svg>