<?xml version="1.0" encoding="UTF-8"?>
<svg width="115" height="43" viewBox="0 0 115 43" fill="none" xmlns="http://www.w3.org/2000/svg">
    <path d="M1.82831 16.7532L0.736192 16.0087C0.736192 16.0087 0.0869945 15.6673 0.0081375 15.2641C-0.110148 14.6592 1.10022 14.1472 1.10022 14.1472L3.64841 13.7749L5.83258 13.0303L8.74479 10.7965L11.657 9.67965L27.6742 8.93506L49.8799 7.81818L51.7 6.7013L54.2482 4.09524C54.2482 4.09524 55.8592 2.27513 57.1604 1.48918C58.9427 0.412655 62.2568 0 62.2568 0C62.6209 0 63.9175 1.05301 63.3489 1.48918C63.0077 1.75088 62.6731 1.39419 62.2568 1.48918C60.8283 1.81518 60.7545 3.37867 60.4367 4.83983C60.0306 6.70649 60.0889 8.11557 61.1647 9.67965C62.4861 11.6008 64.4099 11.2935 66.6251 11.9134C72.2488 13.487 75.7811 12.4025 81.5503 11.5411C84.8613 11.0468 86.5825 9.87936 89.9229 9.67965C93.6373 9.45759 95.673 10.5788 99.3876 10.7965C103.078 11.0128 108.852 10.7965 108.852 10.7965L109.58 10.0519C109.58 10.0519 110.309 9.67961 111.401 10.0519C111.957 10.2415 110.272 10.9428 110.308 11.5411C110.42 13.3766 116.44 12.6696 114.677 13.0303C113.98 13.1729 112.857 13.0303 112.857 13.0303H108.852C108.852 13.0303 104.536 11.7574 102.3 13.0303C101.679 13.3839 100.844 14.1472 100.844 14.1472L97.9315 16.381C97.9315 16.381 94.0465 19.2832 91.379 20.8485C87.0721 23.3757 79.7301 26.0606 79.7301 26.0606C79.7301 26.0606 71.4098 30.7593 65.5331 31.645C63.8395 31.9003 61.1647 32.0173 61.1647 32.0173C61.1647 32.0173 58.0783 32.8056 56.0683 33.1342C50.032 34.121 40.4152 33.1342 40.4152 33.1342L36.4109 32.0173L40.0511 34.9957C40.0511 34.9957 41.1432 35.3932 39.3231 35.7403C37.503 36.0873 32.0425 31.645 32.0425 31.645H30.5864V37.6017L32.0425 39.4632C32.0425 39.4632 32.7706 40.5801 32.7706 42.0693C32.7706 43.5585 32.0425 42.8138 32.0425 42.8138L29.4944 41.3247C29.4944 41.3247 26.6666 38.8952 25.4901 36.8571C24.4156 34.9959 23.6699 31.645 23.6699 31.645C23.6699 31.645 23.0555 29.0177 22.2138 27.5498C19.9569 23.6136 12.3851 21.5931 12.3851 21.5931L5.83258 17.8701L3.28438 17.1255L1.82831 16.7532Z"
          fill="#222222"/>
</svg>