<?xml version="1.0" encoding="UTF-8"?>
<svg width="23" height="22" viewBox="0 0 23 22" fill="none" xmlns="http://www.w3.org/2000/svg">
    <path d="M2.96337 0.012672C2.84624 0.0347577 2.71961 0.151895 2.68804 0.269033C2.66906 0.335453 2.24502 3.56376 2.24502 3.64296C2.24502 3.65555 1.89377 3.66504 1.27341 3.66504C0.326974 3.66504 0.301802 3.66815 0.209998 3.70938C0.156172 3.73784 0.0961313 3.78856 0.0643935 3.83911L0.00745972 3.92452L0.00107935 10.7323C-0.00202905 15.5939 0.00108047 17.5657 0.0169498 17.6227C0.0454161 17.7208 0.153064 17.8442 0.241735 17.8821C0.295561 17.9042 0.450652 17.9106 0.887463 17.9106C1.42865 17.9106 1.4666 17.9137 1.45713 17.9454C1.45402 17.9675 1.42229 18.1416 1.39071 18.3348C1.34 18.6419 1.33689 18.6956 1.36225 18.7747C1.39709 18.8886 1.51734 19.0121 1.62499 19.0406C1.67243 19.0532 5.71416 19.7274 10.6073 20.5377C16.9218 21.5821 19.5389 22.0063 19.6151 21.9999C19.7482 21.9904 19.8589 21.9145 19.9158 21.791C19.9443 21.7308 20.0266 21.2814 20.1563 20.4934C20.2671 19.8287 20.7639 16.8219 21.261 13.812C21.9003 9.93489 22.163 8.31759 22.1535 8.26064C22.1346 8.15626 22.0397 8.02964 21.951 7.9853C21.9098 7.96632 21.6249 7.90939 21.318 7.85867C21.0079 7.80485 20.7515 7.76051 20.7451 7.7543C20.742 7.75119 20.8812 6.60863 21.0617 5.21277C21.3085 3.3106 21.3844 2.66487 21.3687 2.61432C21.3372 2.50356 21.2706 2.41178 21.1852 2.36434C21.1124 2.32311 20.0869 2.18716 12.1334 1.16155C7.19889 0.528591 3.14142 0.00310503 3.11001 5.80501e-06C3.07745 -0.000157784 3.0143 0.00311425 2.96359 0.0126029L2.96337 0.012672ZM11.9964 1.94332C16.6808 2.54784 20.523 3.04794 20.5293 3.05431C20.5388 3.0638 19.9627 7.61185 19.9501 7.63111C19.947 7.63422 19.7064 7.59626 19.412 7.54571L18.8771 7.45393L18.8676 5.70048C18.8581 4.45355 18.8517 3.93116 18.8328 3.89322C18.7948 3.81403 18.7061 3.72863 18.6238 3.69068C18.5605 3.66532 17.5223 3.66221 10.7966 3.66221C5.23896 3.66221 3.04228 3.65583 3.04228 3.64013C3.04228 3.61477 3.37145 1.04478 3.39042 0.924538C3.39991 0.870712 3.41251 0.845358 3.43787 0.845358C3.45995 0.848302 7.30863 1.33893 11.9959 1.94345L11.9964 1.94332ZM18.07 5.88378V7.32395L18.0131 7.31135C17.9782 7.30497 14.8068 6.77967 10.9581 6.14341C6.53965 5.41228 3.9317 4.98823 3.88102 4.99443C3.76388 5.0103 3.64675 5.0957 3.59619 5.20335C3.56462 5.26977 3.30188 6.82068 2.58664 11.1568C2.05169 14.3789 1.61177 17.0407 1.60863 17.0692C1.59914 17.1166 1.59276 17.1166 1.20028 17.1166H0.801431V4.44374H18.0763V5.88375L18.07 5.88378ZM12.7938 7.25112C17.456 8.02019 21.2794 8.65955 21.2919 8.66592C21.3078 8.67851 19.7379 18.2404 19.7189 18.2622C19.7158 18.2653 18.7378 16.9043 17.5445 15.2364C16.3512 13.5686 15.3448 12.1695 15.3101 12.122C15.1898 11.97 14.9999 11.9259 14.8322 12.0113C14.7815 12.0366 13.2687 13.1095 11.4709 14.3977C9.67307 15.6858 8.19185 16.7398 8.17288 16.7398C8.15701 16.7429 7.63793 16.0371 7.0082 15.1542C6.28658 14.1508 5.84666 13.5494 5.80231 13.5242C5.71053 13.464 5.59028 13.445 5.48901 13.4735C5.44157 13.4894 4.85606 13.8945 4.04574 14.4736C3.29564 15.0117 2.68166 15.4452 2.67839 15.4452C2.67528 15.4421 3.03291 13.2867 3.46974 10.6594C3.90656 8.02922 4.26419 5.87362 4.26419 5.86106C4.2673 5.85157 4.28006 5.84519 4.29266 5.84519C4.30182 5.84846 8.13151 6.47831 12.7937 7.25069L12.7938 7.25112ZM17.1582 16.0625C18.3862 17.7781 19.4244 19.2275 19.4655 19.2847L19.5383 19.389L19.3896 20.2721C19.3104 20.7564 19.2409 21.1553 19.2376 21.1584C19.2312 21.1647 2.21615 18.3477 2.20317 18.3382C2.19368 18.3287 2.48161 16.5911 2.49437 16.5658C2.51024 16.5404 5.47269 14.4232 5.49166 14.4232C5.50115 14.4232 6.02024 15.1384 6.64373 16.0121C7.43177 17.1167 7.80217 17.6168 7.85272 17.6484C7.94761 17.7086 8.05526 17.7275 8.16291 17.7022C8.21984 17.6863 9.30857 16.9172 11.5622 15.3032C13.3851 13.996 14.8886 12.9293 14.9012 12.9357C14.9173 12.9418 15.9301 14.3471 17.1581 16.0626L17.1582 16.0625Z"
            fill="#222222"/>
    <path d="M8.8029 7.66886C8.77443 7.67197 8.67938 7.68784 8.59398 7.70044C7.79643 7.81757 7.01149 8.39361 6.64109 9.1342C6.42906 9.55825 6.35626 9.87169 6.35626 10.356C6.35626 10.7326 6.37835 10.8751 6.486 11.2042C6.619 11.6157 6.85001 11.9828 7.17277 12.2961C7.47984 12.5937 7.80899 12.7929 8.20146 12.9196C8.53062 13.0239 8.66672 13.0462 9.0656 13.0462C9.38216 13.0431 9.44858 13.0367 9.648 12.986C10.202 12.8468 10.6291 12.603 11.0059 12.2041C11.3858 11.8022 11.6294 11.299 11.7117 10.7388C11.7529 10.4571 11.7529 10.2514 11.7117 9.96973C11.6263 9.3906 11.3699 8.87789 10.9585 8.46003C10.5724 8.07067 10.104 7.82067 9.55004 7.70684C9.3853 7.67526 8.91053 7.64988 8.8029 7.66886ZM9.5656 8.52659C10.2872 8.74189 10.8063 9.33051 10.9266 10.0616C10.9581 10.2578 10.9424 10.6408 10.8917 10.8307C10.8443 11.0206 10.6764 11.3593 10.5562 11.5175C10.2903 11.872 9.86627 12.1347 9.42623 12.2265C9.21731 12.2677 8.86606 12.2677 8.65716 12.2265C7.90396 12.0714 7.32466 11.4859 7.17284 10.7294C7.1254 10.4889 7.13799 10.0711 7.20441 9.84632C7.40057 9.16265 7.97038 8.64043 8.67617 8.48844C8.89785 8.43805 9.33467 8.46014 9.56565 8.52656L9.5656 8.52659Z"
            fill="#222222"/>
</svg>