<?xml version="1.0" encoding="UTF-8"?>
<svg width="24" height="24" viewBox="0 0 24 24" fill="none" xmlns="http://www.w3.org/2000/svg">
    <path d="M6.17322 3.01037C6.08731 3.02844 5.99445 3.12428 5.9713 3.22012C5.95738 3.27446 5.6464 5.9158 5.6464 5.9806C5.6464 5.99091 5.38881 5.99867 4.93387 5.99867C4.23979 5.99867 4.22133 6.00121 4.154 6.03495C4.11453 6.05824 4.0705 6.09973 4.04722 6.14109L4.00547 6.21097L4.00079 11.781C3.99851 15.7587 4.00079 17.3719 4.01243 17.4185C4.03331 17.4989 4.11225 17.5998 4.17728 17.6308C4.21675 17.6489 4.33049 17.6541 4.65083 17.6541C5.04772 17.6541 5.07554 17.6567 5.0686 17.6826C5.06632 17.7007 5.04305 17.8431 5.01989 18.0012C4.9827 18.2525 4.98042 18.2964 4.99902 18.3612C5.02457 18.4543 5.11275 18.5554 5.1917 18.5787C5.22649 18.589 8.19054 19.1406 11.779 19.8036C16.4097 20.6581 18.3291 21.0051 18.385 20.9999C18.4825 20.9922 18.5637 20.9301 18.6055 20.829C18.6263 20.7798 18.6867 20.4121 18.7818 19.7673C18.8631 19.2234 19.2274 16.7633 19.5919 14.3007C20.0608 11.1285 20.2535 9.80531 20.2465 9.7587C20.2326 9.6733 20.163 9.5697 20.098 9.53343C20.0677 9.5179 19.8589 9.47132 19.6338 9.42983C19.4063 9.38579 19.2183 9.34951 19.2136 9.34443C19.2113 9.34188 19.3134 8.40706 19.4458 7.26499C19.6268 5.70867 19.6825 5.18035 19.671 5.13899C19.6478 5.04837 19.599 4.97328 19.5364 4.93446C19.483 4.90073 18.7309 4.78949 12.8981 3.95036C9.27938 3.43248 6.30379 3.00254 6.28075 3C6.25688 2.99987 6.21057 3.00255 6.17337 3.01031L6.17322 3.01037ZM12.7976 4.58999C16.233 5.0846 19.0507 5.49377 19.0553 5.49898C19.0623 5.50674 18.6399 9.22787 18.6306 9.24364C18.6283 9.24618 18.4519 9.21513 18.236 9.17376L17.8437 9.09867L17.8367 7.66403C17.8298 6.64381 17.8251 6.2164 17.8112 6.18536C17.7833 6.12057 17.7183 6.0507 17.658 6.01965C17.6115 5.9989 16.8502 5.99636 11.9178 5.99636C7.84204 5.99636 6.23109 5.99114 6.23109 5.97829C6.23109 5.95754 6.47248 3.85482 6.4864 3.75644C6.49336 3.7124 6.5026 3.69166 6.52119 3.69166C6.53739 3.69407 9.35985 4.09549 12.7973 4.59009L12.7976 4.58999ZM17.2518 7.814V8.99232L17.2101 8.98202C17.1845 8.9768 14.8587 8.547 12.0363 8.02643C8.79592 7.42823 6.88335 7.08128 6.84618 7.08635C6.76028 7.09934 6.67438 7.16921 6.6373 7.25729C6.61415 7.31163 6.42147 8.58056 5.89694 12.1283C5.50463 14.7646 5.18201 16.9424 5.1797 16.9657C5.17274 17.0045 5.16807 17.0045 4.88024 17.0045H4.58774V6.63579H17.2564V7.81397L17.2518 7.814ZM13.3824 8.93273C16.8015 9.56197 19.6054 10.0851 19.6146 10.0903C19.6263 10.1006 18.475 17.924 18.4611 17.9418C18.4588 17.9443 17.7415 16.8308 16.8664 15.4662C15.9913 14.1015 15.2532 12.9568 15.2278 12.918C15.1396 12.7937 15.0003 12.7575 14.8773 12.8274C14.8401 12.8481 13.7307 13.726 12.4123 14.7799C11.0938 15.8339 10.0076 16.6962 9.99366 16.6962C9.98202 16.6987 9.60135 16.1213 9.13953 15.3989C8.61032 14.5779 8.2877 14.0859 8.25518 14.0653C8.18787 14.016 8.09969 14.0005 8.02542 14.0238C7.99063 14.0368 7.56124 14.3682 6.96698 14.842C6.41689 15.2823 5.96662 15.637 5.96422 15.637C5.96195 15.6344 6.22421 13.8709 6.54457 11.7213C6.86492 9.56936 7.12718 7.80569 7.12718 7.79541C7.12946 7.78765 7.13882 7.78243 7.14806 7.78243C7.15478 7.78511 9.96332 8.30044 13.3824 8.93238L13.3824 8.93273ZM16.5832 16.1421C17.4837 17.5457 18.2451 18.7316 18.2752 18.7784L18.3286 18.8638L18.2195 19.5863C18.1615 19.9825 18.1105 20.3088 18.1081 20.3114C18.1034 20.3166 5.62524 18.0118 5.61571 18.004C5.60876 17.9962 5.81991 16.5746 5.82927 16.5538C5.84091 16.5331 8.01345 14.8008 8.02736 14.8008C8.03432 14.8008 8.415 15.386 8.87224 16.1008C9.45016 17.0046 9.7218 17.4137 9.75887 17.4396C9.82846 17.4888 9.9074 17.5043 9.98634 17.4836C10.0281 17.4706 10.8265 16.8414 12.4792 15.5208C13.8161 14.4513 14.9187 13.5785 14.928 13.5838C14.9397 13.5887 15.6825 14.7385 16.5831 16.1421L16.5832 16.1421Z"
              fill="white"/>
    <path d="M10.4558 9.27473C10.4349 9.27728 10.3652 9.29026 10.3025 9.30057C9.71766 9.39641 9.14201 9.86771 8.87038 10.4737C8.71489 10.8206 8.6615 11.0771 8.6615 11.4733C8.6615 11.7814 8.6777 11.898 8.75664 12.1673C8.85418 12.504 9.02359 12.8043 9.26029 13.0606C9.48549 13.3041 9.72687 13.4671 10.0147 13.5708C10.2561 13.6562 10.3559 13.6744 10.6484 13.6744C10.8806 13.6718 10.9293 13.6666 11.0755 13.6251C11.4818 13.5112 11.795 13.3118 12.0713 12.9854C12.3499 12.6565 12.5286 12.2448 12.5889 11.7865C12.6192 11.556 12.6192 11.3877 12.5889 11.1573C12.5263 10.6834 12.3383 10.2639 12.0366 9.92206C11.7534 9.60348 11.4099 9.39894 11.0037 9.30581C10.8829 9.27997 10.5347 9.25921 10.4558 9.27473ZM11.0151 9.97651C11.5443 10.1527 11.925 10.6343 12.0132 11.2325C12.0363 11.3929 12.0248 11.7063 11.9876 11.8617C11.9528 12.0171 11.8297 12.2942 11.7416 12.4236C11.5466 12.7137 11.2356 12.9286 10.9129 13.0037C10.7597 13.0375 10.5021 13.0375 10.3489 13.0037C9.79652 12.8768 9.37168 12.3978 9.26034 11.7788C9.22555 11.5821 9.23479 11.2402 9.2835 11.0563C9.42735 10.4969 9.84523 10.0697 10.3628 9.9453C10.5254 9.90407 10.8457 9.92214 11.0151 9.97649L11.0151 9.97651Z"
              fill="white"/>
</svg>