<?xml version="1.0" encoding="UTF-8"?>
<svg width="48" height="48" viewBox="0 0 48 48" fill="none" xmlns="http://www.w3.org/2000/svg">
    <rect x="0.5" y="0.5" width="47" height="47" fill="white" />
    <rect x="0.5" y="0.5" width="47" height="47" stroke="black" />
    <path d="M11.0048 11.9087C10.6709 11.9087 10.4003 12.1793 10.4003 12.5132C10.4003 12.8471 10.6709 13.1177 11.0048 13.1177H14.7456L17.929 28.1565C18.0062 28.5281 18.2597 28.8367 18.562 28.8367H33.6764C33.9958 28.8412 34.2895 28.5515 34.2895 28.2322C34.2895 27.9128 33.9958 27.6231 33.6764 27.6277H19.0532L18.543 25.2094H34.8854C35.1561 25.2064 35.4118 25.0012 35.4711 24.737L37.587 15.6686C37.6656 15.3177 37.3609 14.9344 37.0014 14.9317H16.3705L15.8321 12.3813C15.7723 12.1141 15.5109 11.9066 15.2369 11.9089L11.0048 11.9087ZM16.6256 16.1407H22.794V19.4659H17.334L16.6256 16.1407ZM24.0032 16.1407H28.8396V19.4659H24.0032V16.1407ZM30.0488 16.1407H36.2456L35.4711 19.4659H30.0491L30.0488 16.1407ZM17.5888 20.6751H22.7936V24.0003H18.2876L17.5888 20.6751ZM24.0028 20.6751H28.8392V24.0003H24.0028V20.6751ZM30.0484 20.6751H35.1872L34.4031 24.0003H30.0483L30.0484 20.6751ZM21.8868 30.6503C20.3915 30.6503 19.1661 31.8755 19.1661 33.3709C19.1661 34.8663 20.3913 36.0916 21.8868 36.0916C23.3821 36.0916 24.6074 34.8664 24.6074 33.3709C24.6074 31.8756 23.3823 30.6503 21.8868 30.6503ZM30.3508 30.6503C28.8555 30.6503 27.6302 31.8755 27.6302 33.3709C27.6302 34.8663 28.8553 36.0916 30.3508 36.0916C31.8461 36.0916 33.0714 34.8664 33.0714 33.3709C33.0714 31.8756 31.8463 30.6503 30.3508 30.6503ZM21.8868 31.8595C22.7287 31.8595 23.3982 32.529 23.3982 33.3709C23.3982 34.2128 22.7287 34.8823 21.8868 34.8823C21.0449 34.8823 20.3754 34.2128 20.3754 33.3709C20.3754 32.529 21.0449 31.8595 21.8868 31.8595ZM30.3508 31.8595C31.1927 31.8595 31.8622 32.529 31.8622 33.3709C31.8622 34.2128 31.1927 34.8823 30.3508 34.8823C29.5089 34.8823 28.8394 34.2128 28.8394 33.3709C28.8394 32.529 29.5089 31.8595 30.3508 31.8595Z"
              fill="black" />
</svg>