<?xml version="1.0" encoding="UTF-8"?>
<svg
          width="71"
          height="71"
          viewBox="0 0 71 71"
          fill="none"
          xmlns="http://www.w3.org/2000/svg">
          <path
            d="M12.638 44.801C13.7739 44.801 14.342 44.3041 14.768 43.9491C15.6199 43.2391 16.472 43.2391 17.253 43.9491C18.6021 45.085 20.2349 45.085 21.5839 43.9491C22.4358 43.2391 23.288 43.31 24.0689 43.9491C25.418 45.085 27.0508 45.085 28.3999 43.9491C29.2518 43.2391 30.1039 43.2391 30.8849 43.9491C32.2339 45.085 33.8668 45.085 35.2158 43.9491C36.0677 43.2391 36.9199 43.2391 37.7008 43.9491C39.0499 45.085 40.6827 45.085 42.0318 43.9491C42.8836 43.2391 43.7358 43.2391 44.5168 43.9491C45.8658 45.085 47.4986 45.085 48.8477 43.9491C49.6996 43.2391 50.5518 43.2391 51.3327 43.9491C52.6818 45.085 54.3146 45.085 55.6636 43.9491C56.5155 43.2391 57.3677 43.2391 58.1486 43.9491C58.6456 44.3041 59.2136 44.801 60.2786 44.801V43.381C59.7106 43.381 59.4268 43.1679 59.0005 42.8129C57.6515 41.677 56.0186 41.677 54.6696 42.8129C53.8177 43.5229 52.9655 43.5229 52.1846 42.8129C50.8355 41.677 49.2027 41.677 47.8536 42.8129C47.0018 43.5229 46.1496 43.5229 45.3686 42.8129C44.0196 41.677 42.3868 41.677 41.0377 42.8129C40.1858 43.5229 39.3336 43.452 38.5527 42.8129C37.2036 41.677 35.5708 41.677 34.2218 42.8129C33.3699 43.5229 32.5177 43.5229 31.7368 42.8129C30.3877 41.677 28.7549 41.677 27.4058 42.8129C26.5539 43.5229 25.7018 43.5229 24.9208 42.8129C23.5718 41.677 21.9389 41.677 20.5899 42.8129C19.738 43.5229 18.8858 43.5229 18.1049 42.8129C16.7558 41.677 15.123 41.677 13.7739 42.8129C13.348 43.1679 13.1349 43.381 12.4958 43.381V44.801H12.638Z"
            fill="black"/>
          <path
            d="M50.126 40.754C49.061 40.754 48.0669 41.18 47.1441 41.89C47.0022 42.0319 46.7891 42.1031 46.7182 42.1031C46.5762 42.1031 46.4341 42.0321 46.2922 41.89C45.3691 41.18 44.3753 40.754 43.3103 40.754C42.2453 40.754 41.2513 41.18 40.3284 41.89C40.2575 41.9609 40.0444 42.1031 39.9025 42.1031C39.7606 42.1031 39.5475 41.9612 39.4765 41.89C38.5534 41.18 37.5597 40.754 36.4946 40.754C35.4297 40.754 34.4356 41.18 33.5128 41.89C33.3709 42.0319 33.1578 42.1031 33.0868 42.1031C32.9449 42.1031 32.8028 42.0321 32.6609 41.89C32.0218 41.3219 31.2409 40.9669 30.5309 40.825L47.4999 39.6181C49.7008 39.4762 51.8308 38.9081 53.8189 37.985L51.1207 40.825C50.6941 40.754 50.41 40.754 50.126 40.754Z"
            fill="black"
          />
          <path
            d="M26.27 42.103C26.1281 42.103 25.986 42.032 25.8441 41.8899C25.4891 41.6059 25.205 41.393 24.85 41.2508L28.3291 40.9668C27.761 41.1799 27.1931 41.4637 26.6959 41.8899C26.4831 42.0318 26.341 42.103 26.27 42.103Z"
            fill="black"
          />
          <path
            d="M26.412 30.8139C26.412 31.5981 27.0478 32.2339 27.832 32.2339C28.6164 32.2339 29.252 31.5981 29.252 30.8139C29.252 30.0297 28.6164 29.3939 27.832 29.3939C27.0478 29.3939 26.412 30.0297 26.412 30.8139Z"
            fill="black"
          />
          <path
            d="M20.306 36.7781L26.767 36.2812C26.767 36.2812 26.057 35.2162 26.057 35.003C25.9861 34.009 26.838 33.228 27.832 33.228C28.542 33.228 29.1101 33.654 29.3939 34.2221L30.3879 36.068L47.0729 34.8612C49.3448 34.7193 51.4748 34.0093 53.3919 32.8021C54.2438 32.3052 55.3088 32.5181 55.806 33.3702C56.3029 34.2221 56.0901 35.2871 55.2379 35.7843C52.8239 37.2752 50.126 38.1983 47.2859 38.4111L20.5899 40.328C19.5959 40.399 18.744 39.689 18.673 38.6949C18.6018 37.7008 19.383 36.849 20.3059 36.778L20.306 36.7781Z"
            fill="black"
          />
          <path
            d="M17.395 38.624C17.4659 39.4759 17.8919 40.2571 18.5309 40.6831L18.6019 41.535C17.8209 40.9669 16.8978 40.6831 16.0459 40.6831H15.8328V33.8671C15.8328 33.1571 16.4009 32.6602 17.0397 32.589L21.8678 32.3759C22.3647 32.3759 22.8619 32.589 23.0747 33.0149L24.2816 35.2159L20.0216 35.4999C18.4599 35.713 17.253 37.0618 17.3949 38.624L17.395 38.624Z"
            fill="black"
          />
        </svg>